<svg width="689" height="607" xmlns="http://www.w3.org/2000/svg">
 <!-- Created with Method Draw - http://github.com/duopixel/Method-Draw/ -->
 <defs>
  <filter height="200%" width="200%" y="-50%" x="-50%" id="svg_194_blur">
   <feGaussianBlur stdDeviation="0.1" in="SourceGraphic"/>
  </filter>
 </defs>
 <g>
  <title>background</title>
  <rect fill="none" id="canvas_background" height="609" width="691" y="-1" x="-1"/>
  <g display="none" overflow="visible" y="0" x="0" height="100%" width="100%" id="canvasGrid">
   <rect fill="url(#gridpattern)" stroke-width="0" y="0" x="0" height="100%" width="100%"/>
  </g>
 </g>
 <g>
  <title>Layer 1</title>
  <!-- Created with Method Draw - http://github.com/duopixel/Method-Draw/ -->
  <g stroke="null" transform="matrix(1.034044584082119,0,0,1.034044584082119,-4053.6186505251912,-3035.0693003412666) " id="svg_190">
   <title stroke="null" transform="translate(-35.781822204589844,-5.802457809448242) translate(-102.51008605957031,20.30860137939453) translate(129.58822631835938,-9.67076301574707) translate(-0.967076301574707,0) translate(1.934152603149414,1.934152603149414) translate(-122.83772277832031,-60.302154541015625) translate(4051.439697265625,0) translate(0,2986.82958984375) ">background</title>
   <rect stroke="null" x="3919.86537" y="2932.29697" width="664" height="602" id="svg_188" fill="none"/>
   <g stroke="null" id="svg_187" display="none">
    <rect stroke="null" id="svg_191" width="800" height="600" x="3920.86537" y="2933.29697" stroke-width="0" fill="url(#gridpattern)"/>
   </g>
  </g>
  <g transform="matrix(1.034044584082119,0,0,1.034044584082119,-4053.6186505251912,-3035.0693003412666) " stroke="null" id="svg_159">
   <g stroke="null" id="svg_184" transform="matrix(1.2754943439151751,0,0,1.2754943439151751,-1020.8179944895528,-615.1383010841344) ">
    <g stroke="null" id="svg_185">
     <path stroke="#fff" d="m4256.84212,3137.24186c-17.648,0 -32,14.352 -32,32s14.352,32 32,32s32,-14.352 32,-32s-14.352,-32 -32,-32zm0,48c-8.824,0 -16,-7.176 -16,-16c0,-8.824 7.176,-16 16,-16c8.824,0 16,7.176 16,16c0,8.824 -7.176,16 -16,16z" id="svg_186" fill="#ed7f36"/>
    </g>
   </g>
   <g stroke="null" id="svg_181" transform="matrix(1.2754943439151751,0,0,1.2754943439151751,-1020.8179944895528,-615.1383010841344) ">
    <g stroke="null" id="svg_182">
     <path stroke="#fff" d="m4016.84212,3137.24186c-17.648,0 -32,14.352 -32,32s14.352,32 32,32s32,-14.352 32,-32s-14.352,-32 -32,-32zm0,48c-8.824,0 -16,-7.176 -16,-16c0,-8.824 7.176,-16 16,-16c8.824,0 16,7.176 16,16c0,8.824 -7.176,16 -16,16z" id="svg_183" fill="#ed7f36"/>
    </g>
   </g>
   <g stroke="null" id="svg_178" transform="matrix(1.2754943439151751,0,0,1.2754943439151751,-1020.8179944895528,-615.1383010841344) ">
    <g stroke="null" id="svg_179">
     <path stroke="#fff" d="m4368.84212,3057.24186l0,-216c0,-8.824 -7.176,-16 -16,-16l-3.056,0l-16,-32l-313.888,0l-16,32l-3.056,0c-8.824,0 -16,7.176 -16,16l0,72.28c-8.848,1.312 -16.344,7.448 -19.24,16.128l-25.824,77.48c-0.792,2.376 -2.68,4.264 -5.056,5.064l-29.472,9.824c-9.816,3.264 -16.408,12.408 -16.408,22.752l0,108.472c0,13.232 10.768,24 24,24l40.552,0c3.96,31.52 30.872,56 63.448,56s59.488,-24.48 63.448,-56l113.112,0c3.96,31.52 30.872,56 63.448,56s59.488,-24.48 63.448,-56l40.544,0c13.232,0 24,-10.768 24,-24l0,-96l-16,0zm-339.056,-248l294.112,0l8,16l-310.112,0l8,-16zm-28.944,32l352,0l0,216l-24,0l0,-200l-160,0l0,200l-48,0l0,-120c0,-13.232 -10.768,-24 -24,-24l-96,0l0,-72zm312,136l0,16l-56,0l0,16l56,0l0,16l-16,0l0,16l16,0l0,16l-128,0l0,-16l16,0l0,-16l-16,0l0,-16l16,0l0,-16l-16,0l0,-56l16,0l0,-16l-16,0l0,-16l16,0l0,-16l-16,0l0,-16l128,0l0,88l-16,0l0,16l16,0zm-391.6,184l-8.4,0c-4.408,0 -8,-3.584 -8,-8l0,-24l24.84,0c-4.56,9.888 -7.496,20.656 -8.44,32zm95.6,56c-26.472,0 -48,-21.528 -48,-48s21.528,-48 48,-48s48,21.528 48,48s-21.528,48 -48,48zm63.44,-56c-3.952,-31.52 -30.864,-56 -63.44,-56s-59.488,24.48 -63.448,56l-16.144,0c4.024,-40.368 38.184,-72 79.592,-72s75.568,31.632 79.592,72l-16.152,0zm113.112,0l-80.96,0c-0.456,-5.48 -1.408,-10.816 -2.752,-16l87.872,0c-2.048,5.048 -3.456,10.416 -4.16,16zm63.448,56c-26.472,0 -48,-21.528 -48,-48s21.528,-48 48,-48s48,21.528 48,48s-21.528,48 -48,48zm112,-64c0,4.416 -3.592,8 -8,8l-40.552,0c-0.704,-5.584 -2.104,-10.952 -4.16,-16l52.712,0l0,8zm0,-24l-62.12,0c-11.744,-14.608 -29.72,-24 -49.88,-24c-20.16,0 -38.144,9.392 -49.88,24l-102.96,0c-15.208,-32.992 -48.512,-56 -87.16,-56c-32.024,0 -60.368,15.824 -77.816,40l-34.184,0l0,-68.472c0,-3.44 2.2,-6.496 5.472,-7.592l29.472,-9.824c7.128,-2.376 12.8,-8.048 15.176,-15.168l25.824,-77.48c1.088,-3.272 4.136,-5.464 7.584,-5.464l108.472,0c4.408,0 8,3.584 8,8l0,120c0,8.824 7.176,16 16,16l248,0l0,56z" id="svg_180" fill="#ed7f36"/>
    </g>
   </g>
   <g stroke="null" id="svg_175" transform="matrix(1.2754943439151751,0,0,1.2754943439151751,-1020.8179944895528,-615.1383010841344) ">
    <g stroke="null" id="svg_176">
     <path stroke="#fff" d="m4072.84212,2945.24186l-65.752,0c-7.352,0 -13.736,4.984 -15.52,12.128l-14.248,57.008c-0.32,1.264 -0.48,2.56 -0.48,3.848l0,7.016c0,8.824 7.176,16 16,16l80,0c8.824,0 16,-7.176 16,-16l0,-64c0,-8.824 -7.176,-16 -16,-16zm0,80l-80,0l0,-7.016l14.248,-56.984l65.752,0l0,64z" id="svg_177" fill="#ed7f36"/>
    </g>
   </g>
   <g stroke="null" id="svg_174" transform="matrix(1.2754943439151751,0,0,1.2754943439151751,-1020.8179944895528,-615.1383010841344) "/>
   <g stroke="null" id="svg_173" transform="matrix(1.2754943439151751,0,0,1.2754943439151751,-1020.8179944895528,-615.1383010841344) "/>
   <g stroke="null" id="svg_172" transform="matrix(1.2754943439151751,0,0,1.2754943439151751,-1020.8179944895528,-615.1383010841344) "/>
   <g stroke="null" id="svg_171" transform="matrix(1.2754943439151751,0,0,1.2754943439151751,-1020.8179944895528,-615.1383010841344) "/>
   <g stroke="null" id="svg_170" transform="matrix(1.2754943439151751,0,0,1.2754943439151751,-1020.8179944895528,-615.1383010841344) "/>
   <g stroke="null" id="svg_169" transform="matrix(1.2754943439151751,0,0,1.2754943439151751,-1020.8179944895528,-615.1383010841344) "/>
   <g stroke="null" id="svg_168" transform="matrix(1.2754943439151751,0,0,1.2754943439151751,-1020.8179944895528,-615.1383010841344) "/>
   <g stroke="null" id="svg_167" transform="matrix(1.2754943439151751,0,0,1.2754943439151751,-1020.8179944895528,-615.1383010841344) "/>
   <g stroke="null" id="svg_166" transform="matrix(1.2754943439151751,0,0,1.2754943439151751,-1020.8179944895528,-615.1383010841344) "/>
   <g stroke="null" id="svg_165" transform="matrix(1.2754943439151751,0,0,1.2754943439151751,-1020.8179944895528,-615.1383010841344) "/>
   <g stroke="null" id="svg_164" transform="matrix(1.2754943439151751,0,0,1.2754943439151751,-1020.8179944895528,-615.1383010841344) "/>
   <g stroke="null" id="svg_163" transform="matrix(1.2754943439151751,0,0,1.2754943439151751,-1020.8179944895528,-615.1383010841344) "/>
   <g stroke="null" id="svg_162" transform="matrix(1.2754943439151751,0,0,1.2754943439151751,-1020.8179944895528,-615.1383010841344) "/>
   <g stroke="null" id="svg_161" transform="matrix(1.2754943439151751,0,0,1.2754943439151751,-1020.8179944895528,-615.1383010841344) "/>
   <g stroke="null" id="svg_160" transform="matrix(1.2754943439151751,0,0,1.2754943439151751,-1020.8179944895528,-615.1383010841344) "/>
  </g>
  <defs stroke="null" transform="translate(-4.547473508864641e-13,-0.967076301574707) translate(3.868305206298828,-2.901228904724121) translate(0.967076301574707,0.967076301574707) translate(-35.781822204589844,-5.802457809448242) translate(-102.51008605957031,20.30860137939453) translate(129.58822631835938,-9.67076301574707) translate(-0.967076301574707,0) translate(1.934152603149414,1.934152603149414) translate(-122.83772277832031,-60.302154541015625) translate(4051.439697265625,0) translate(0,2986.82958984375) ">
   <style stroke="null" type="text/css">
    <![CDATA[
    .fil1 {fill:none}
    .fil0 {fill:#ED7F36}
   ]]>
   </style>
  </defs>
  <g transform="matrix(1.034044584082119,0,0,1.034044584082119,-4053.6186505251912,-3035.0693003412666) " stroke="null" id="svg_152">
   <g stroke="null" id="svg_157" transform="matrix(0.1766643600904284,0,0,0.1766643600904284,112.69249549528617,49.08873796195083) ">
    <title stroke="null" transform="translate(-2.6147972675971687e-12,-5.474088191986084) translate(21.896352767944336,-16.422264099121094) translate(5.474088191986084,5.474088191986084) translate(-202.541259765625,-32.84452819824219) translate(-580.2533569335938,114.95584869384766) translate(733.52783203125,-54.740882873535156) translate(-5.474088191986084,0) translate(10.948176383972168,10.948176383972168) translate(-695.3169555664062,-341.33740234375) translate(22932.9765625,0) translate(-1.1368683772161603e-13,16906.802734375) ">background</title>
    <rect stroke="null" x="22530.27673" y="16829.24368" width="359" height="358" id="svg_158" fill="none"/>
   </g>
   <g stroke="null" id="svg_153" transform="matrix(0.1766643600904284,0,0,0.1766643600904284,112.69249549528617,49.08873796195083) ">
    <title stroke="null" transform="translate(-2.6147972675971687e-12,-5.474088191986084) translate(21.896352767944336,-16.422264099121094) translate(5.474088191986084,5.474088191986084) translate(-202.541259765625,-32.84452819824219) translate(-580.2533569335938,114.95584869384766) translate(733.52783203125,-54.740882873535156) translate(-5.474088191986084,0) translate(10.948176383972168,10.948176383972168) translate(-695.3169555664062,-341.33740234375) translate(22932.9765625,0) translate(-1.1368683772161603e-13,16906.802734375) ">Layer 1</title>
    <metadata stroke="null" transform="translate(-2.6147972675971687e-12,-5.474088191986084) translate(21.896352767944336,-16.422264099121094) translate(5.474088191986084,5.474088191986084) translate(-202.541259765625,-32.84452819824219) translate(-580.2533569335938,114.95584869384766) translate(733.52783203125,-54.740882873535156) translate(-5.474088191986084,0) translate(10.948176383972168,10.948176383972168) translate(-695.3169555664062,-341.33740234375) translate(22932.9765625,0) translate(-1.1368683772161603e-13,16906.802734375) " id="svg_156"/>
    <path stroke="null" fill="none" class="fil0" d="m22729.98839,16963.67981c9.085,3.992 16.758,10.605 21.99,18.883c7.297,-8.169 17.876,-13.471 29.754,-13.835c17.538,-0.536 32.92,9.839 39.382,24.87c4.529,-8.487 13.269,-14.391 23.432,-14.712c15.193,-0.481 27.97,11.697 28.444,27.11c0.473,15.411 -11.532,28.373 -26.725,28.853c-9.968,0.315 -18.898,-4.824 -23.994,-12.745c-4.407,13.055 -15.393,23.276 -29.168,26.689c7.241,3.34 13.163,9.067 16.667,16.168c4.357,-6.363 11.386,-10.614 19.399,-10.876c13.663,-0.446 25.155,10.873 25.58,25.2c0.427,14.326 -10.37,26.375 -24.033,26.822c-8.65,0.282 -16.429,-4.155 -21.082,-11.08c-5.537,10.975 -16.884,18.707 -30.165,19.115c-13.066,0.4 -24.717,-6.389 -31.014,-16.716c-3.62,9.398 -10.701,17.185 -19.745,21.78c8.213,5.589 13.73,14.802 14.064,25.337c0.559,17.62 -13.596,32.438 -31.511,32.988c-17.915,0.548 -32.982,-13.375 -33.54,-30.995c-0.351,-11.106 5.146,-21.1 13.743,-27.108c-8.944,-4.408 -16.076,-11.932 -19.869,-21.147c-6.416,9.812 -17.763,16.193 -30.442,15.804c-13.224,-0.405 -24.532,-8.071 -30.095,-18.972c-4.645,6.837 -12.459,11.226 -21.151,10.947c-13.663,-0.436 -24.46,-12.233 -24.033,-26.258c0.425,-14.026 11.917,-25.109 25.58,-24.672c7.86,0.252 14.775,4.259 19.147,10.291c3.47,-7.34 9.5,-13.263 16.917,-16.683c-13.402,-3.323 -24.164,-13.09 -28.793,-25.64c-5.199,8.409 -14.436,13.884 -24.757,13.551c-15.581,-0.502 -27.892,-14.037 -27.407,-30.13c0.487,-16.095 13.589,-28.812 29.169,-28.311c10.314,0.333 19.198,6.373 23.883,15.091c6.523,-14.9 21.836,-25.161 39.278,-24.627c11.631,0.356 22.016,5.447 29.295,13.329c5.252,-8.065 12.855,-14.537 21.881,-18.438c-6.605,-4.17 -11.809,-10.335 -14.695,-17.65c-5.142,11.938 -17.368,20.176 -31.299,19.75c-18.088,-0.555 -32.38,-15.516 -31.816,-33.306c0.563,-17.79 15.775,-31.847 33.863,-31.292c12.972,0.397 23.996,8.21 28.983,19.158c5.069,-13.667 18.207,-23.659 33.855,-24.138c16.653,-0.51 31.155,9.906 36.363,24.639c4.889,-11.18 16.032,-19.202 29.179,-19.604c18.088,-0.555 33.3,13.503 33.864,31.293c0.564,17.79 -13.729,32.752 -31.817,33.306c-14.127,0.433 -26.505,-8.045 -31.514,-20.258c-2.866,7.545 -8.195,13.946 -15.047,18.219zm-77.209,83.439c8.976,2.807 16.356,9.093 20.553,17.195c2.923,-5.461 7.075,-10.201 12.104,-13.853c-6.517,-3.663 -12.121,-8.747 -16.368,-14.827c-4.367,5.036 -9.956,9.011 -16.289,11.485zm-0.102,-195.111c-11.399,-0.348 -20.985,8.509 -21.34,19.721c-0.355,11.211 8.652,20.64 20.05,20.988c11.399,0.35 20.985,-8.509 21.34,-19.72c0.355,-11.21 -8.652,-20.639 -20.05,-20.989zm-0.735,264.577c-13.393,-0.412 -24.656,9.998 -25.074,23.17c-0.418,13.173 10.166,24.252 23.559,24.662c13.392,0.41 24.657,-9.998 25.073,-23.172c0.418,-13.172 -10.164,-24.25 -23.558,-24.66zm-65.396,-202.708c-11.507,-0.352 -21.185,8.591 -21.543,19.909c-0.359,11.318 8.734,20.838 20.241,21.19c11.508,0.353 21.186,-8.59 21.545,-19.909c0.359,-11.319 -8.735,-20.837 -20.243,-21.19zm164.53,121.248c-4.283,6.303 -10.022,11.59 -16.756,15.368c5.277,3.837 9.602,8.881 12.543,14.73c4.11,-8.514 11.692,-15.145 20.983,-18.049c-6.568,-2.566 -12.333,-6.744 -16.77,-12.049zm16.872,-183.06c11.398,-0.35 20.985,8.509 21.34,19.72c0.355,11.21 -8.652,20.639 -20.05,20.989c-11.399,0.349 -20.985,-8.509 -21.34,-19.72c-0.355,-11.212 8.652,-20.641 20.05,-20.989zm0.735,264.575c13.393,-0.41 24.656,9.998 25.074,23.172c0.418,13.172 -10.166,24.25 -23.559,24.66c-13.392,0.412 -24.657,-9.998 -25.073,-23.17c-0.418,-13.173 10.164,-24.252 23.558,-24.662zm65.396,-202.708c11.506,-0.352 21.184,8.592 21.543,19.91c0.359,11.318 -8.735,20.837 -20.242,21.19c-11.508,0.353 -21.186,-8.591 -21.544,-19.91c-0.359,-11.317 8.734,-20.836 20.243,-21.19zm-124.747,-74.978c14.713,-0.451 27.087,10.983 27.544,25.454c0.459,14.471 -11.167,26.64 -25.879,27.091c-14.713,0.452 -27.087,-10.983 -27.545,-25.454c-0.459,-14.471 11.167,-26.64 25.88,-27.091z" id="svg_155"/>
    <path stroke="null" id="svg_154" d="m22584.88312,16883.75566" opacity="0.5" stroke-width="null" fill="none"/>
   </g>
  </g>
  <g transform="matrix(1.034044584082119,0,0,1.034044584082119,-4053.6186505251912,-3035.0693003412666) " stroke="null" id="svg_148">
   <path stroke="null" d="m4375.09381,3122.74167c-7.07261,0 -12.82918,-5.75658 -12.82918,-12.82918l0,-42.9574l-14.58241,3.33843c-3.60429,0.94791 -5.76542,4.66385 -4.81198,8.3013l12.50308,46.68218c0.83019,3.01896 3.60429,5.01704 6.58069,5.01704c0.55825,0 1.12589,-0.06964 1.68745,-0.21722l30.42724,-7.33515l-18.97488,0l-0.00001,0zm0,0" id="svg_151" fill="#ed7f36"/>
   <path stroke="null" d="m4381.88563,3085.00914c3.32959,0 6.03736,-2.70778 6.03736,-6.03736s-2.70778,-6.03681 -6.03736,-6.03681s-6.03736,2.70722 -6.03736,6.03681s2.70778,6.03736 6.03736,6.03736zm0,0" id="svg_150" fill="#ed7f36"/>
   <path stroke="null" d="m4415.09029,3066.89761c0,-5.00156 -4.0542,-9.05576 -9.05576,-9.05576l-30.18625,0c-5.00156,0 -9.05576,4.0542 -9.05576,9.05576l0,42.26042c0,5.00156 4.0542,9.05576 9.05576,9.05576l30.18625,0c5.00156,0 9.05576,-4.0542 9.05576,-9.05576l0,-42.26042zm-39.24201,-3.0184l30.18625,0c1.6659,0 3.0184,1.35195 3.0184,3.0184l0,19.43695l-2.29434,-2.29434c-2.06773,-2.06773 -5.42108,-2.06773 -7.48604,0l-14.36851,14.36851l-3.80327,-3.80327c-2.06773,-2.06773 -5.42108,-2.06773 -7.48604,0l-0.78486,0.78486l0,-28.49272c0,-1.66645 1.35251,-3.0184 3.0184,-3.0184l0.00001,0.00001zm0,0" id="svg_149" fill="#ed7f36"/>
  </g>
  <g transform="matrix(1.034044584082119,0,0,1.034044584082119,-4053.6186505251912,-3035.0693003412666) " stroke="null" id="svg_144">
   <path stroke="null" d="m4400.58922,3151.50157c0,2.47753 -2.00875,4.48628 -4.48628,4.48628s-4.48628,-2.00875 -4.48628,-4.48628s2.00875,-4.48628 4.48628,-4.48628s4.48628,2.00875 4.48628,4.48628zm0,0" id="svg_147" fill="#ed7f36"/>
   <path stroke="null" d="m4446.94764,3157.48346l0,18.10339c0,6.51091 -5.29679,11.80497 -11.80497,11.80497l-30.06718,0l0,2.99067c0,4.12155 3.35595,7.4775 7.47695,7.4775l34.39519,0c4.121,0 7.47695,-3.35595 7.47695,-7.4775l0,-25.42208c0,-4.12155 -3.35595,-7.47695 -7.47695,-7.47695l0.00001,0zm0,0" id="svg_146" fill="#ed7f36"/>
   <path stroke="null" d="m4435.14267,3138.04273l-45.1799,0c-4.03448,0 -7.31869,3.28421 -7.31869,7.31869l0,30.22271c0,0.51697 0.05695,1.02245 0.16155,1.5104c-0.1736,0.73274 -0.01479,1.52792 0.5564,2.1024c0.12541,0.12541 0.28423,0.19441 0.43045,0.28423c1.29791,2.05147 3.57117,3.4244 6.17028,3.4244l45.17661,0c4.03776,0 7.32197,-3.28421 7.32197,-7.31868l0,-30.22545c0,-4.03448 -3.28421,-7.31869 -7.31869,-7.31869l0.00002,-0.00001zm-45.1799,5.98189l45.17661,0c0.73877,0 1.34008,0.60076 1.34008,1.33679l0,18.39967l-9.44792,-11.02129c-1.00218,-1.17853 -2.38662,-1.74972 -4.01093,-1.83953c-1.54928,0.00931 -3.00272,0.69715 -3.99559,1.88717l-11.10837,13.33617l-3.61882,-3.61553c-2.04544,-2.04599 -5.37456,-2.04599 -7.41726,0l-8.25461,8.25187l0,-25.39853c0,-0.73603 0.60076,-1.33679 1.33679,-1.33679l0.00002,0zm0,0" id="svg_145" fill="#ed7f36"/>
  </g>
  <g stroke="null" id="svg_133" transform="rotate(-24 548.2594604492184,163.86441040039062) matrix(1.034044584082119,0,0,1.034044584082119,-2524.6276266502673,-4368.909446021814) ">
   <path stroke="null" d="m4462.90173,3068.1714l-33.91717,0a2.21448,2.38785 0 0 0 -2.21199,2.38516l0,46.11316a2.21448,2.38785 0 0 0 2.21199,2.38516l33.91717,0a2.21448,2.38785 0 0 0 2.21199,-2.38516l0,-46.11316a2.21448,2.38785 0 0 0 -2.21199,-2.38516zm0.73733,48.49832a0.73816,0.79595 0 0 1 -0.73733,0.79505l-33.91717,0a0.73816,0.79595 0 0 1 -0.73733,-0.79505l0,-46.11316a0.73816,0.79595 0 0 1 0.73733,-0.79505l33.91717,0a0.73816,0.79595 0 0 1 0.73733,0.79505l0,46.11316z" id="svg_143" fill="#ed7f36"/>
   <path stroke="null" d="m4472.48702,3068.1714l-0.73733,0a0.73733,0.79505 0 0 0 0,1.59011l0.73733,0l0,47.70327l-0.73733,0a0.73733,0.79505 0 0 0 0,1.59011l0.73733,0a1.47641,1.592 0 0 0 1.47466,-1.59011l0,-47.70327a1.47641,1.592 0 0 0 -1.47466,-1.59011z" id="svg_142" fill="#ed7f36"/>
   <path stroke="null" d="m4468.06304,3068.1714l-0.73733,0a0.73733,0.79505 0 0 0 0,1.59011l0.73733,0l0,47.70327l-0.73733,0a0.73733,0.79505 0 0 0 0,1.59011l0.73733,0a1.47641,1.592 0 0 0 1.47466,-1.59011l0,-47.70327a1.47641,1.592 0 0 0 -1.47466,-1.59011z" id="svg_141" fill="#ed7f36"/>
   <path stroke="null" d="m4460.68974,3071.35162l-21.39547,0a0.73733,0.79505 0 0 0 0,1.59011l21.39547,0l0,30.21207l-29.49319,0l0,-30.21207l2.19909,0a0.73733,0.79505 0 0 0 0,-1.59011l-2.19909,0a1.4766,1.5922 0 0 0 -1.47466,1.59011l0,30.21207a1.4766,1.5922 0 0 0 1.47466,1.59011l29.49319,0a1.47724,1.59289 0 0 0 1.47466,-1.59011l0,-30.21207a1.47724,1.59289 0 0 0 -1.47466,-1.59011z" id="svg_140" fill="#ed7f36"/>
   <circle stroke="null" cx="45262.27186" cy="28671.34087" r="8" id="svg_139" transform="matrix(0.09216623167774309,0,0,0.09938180277165543,264.6919180768151,222.73712560485205) " fill="#ed7f36"/>
   <path stroke="null" d="m4440.78183,3101.56368a8.07376,8.70585 0 0 0 5.16131,-2.00423a8.11063,8.7456 0 1 0 0,-13.48273a8.10528,8.73983 0 0 0 -2.62784,-1.56695l1.95991,-3.52219l-1.01263,-3.27552l-6.9615,0l-1.01263,3.27572l1.95991,3.52199a8.11063,8.7456 0 0 0 2.53347,17.05392l0,-0.00001zm10.32262,-15.90109a6.63597,7.15549 0 1 1 -4.10822,12.76857a8.0933,8.72691 0 0 0 0,-11.22617a6.60131,7.11812 0 0 1 4.10822,-1.54241l0,0.00001zm-3.68665,7.15549a6.60343,7.12041 0 0 1 -1.47466,4.49057a6.61754,7.13561 0 0 1 0,-8.98113a6.60343,7.12041 0 0 1 1.47466,4.49057l0,-0.00001zm-9.51589,-12.02132l0.46203,-1.4946l4.83578,0l0.46203,1.4946l-0.05309,0.09551l-2.82683,0a0.73733,0.79505 0 0 0 0,1.59011l1.94203,0l-0.8848,1.59011l-2.11448,0l-1.82268,-3.27572l0.00001,-0.00001zm2.87992,4.86583a6.60131,7.11812 0 0 1 4.10822,1.54241a8.0933,8.72691 0 0 0 0,11.22617a6.63403,7.1534 0 1 1 -4.10822,-12.76857l0,-0.00001z" id="svg_138" fill="#ed7f36"/>
   <path stroke="null" d="m4454.7911,3077.71205a0.73733,0.79505 0 0 0 0.73733,-0.79505l0,-1.59011a0.73733,0.79505 0 0 0 -1.47466,0l0,1.59011a0.73733,0.79505 0 0 0 0.73733,0.79505z" id="svg_137" fill="#ed7f36"/>
   <path stroke="null" d="m4454.05377,3081.68732a0.73733,0.79505 0 0 0 1.47466,0l0,-1.59011a0.73733,0.79505 0 0 0 -1.47466,0l0,1.59011z" id="svg_136" fill="#ed7f36"/>
   <path stroke="null" d="m4452.57911,3079.30216a0.73733,0.79505 0 0 0 0,-1.59011l-1.47466,0a0.73733,0.79505 0 0 0 0,1.59011l1.47466,0z" id="svg_135" fill="#ed7f36"/>
   <path stroke="null" d="m4458.47775,3079.30216a0.73733,0.79505 0 0 0 0,-1.59011l-1.47466,0a0.73733,0.79505 0 0 0 0,1.59011l1.47466,0z" id="svg_134" fill="#ed7f36"/>
  </g>
  <g stroke="null" id="svg_102" transform="rotate(13 446.61831665039057,249.54547119140634) matrix(1.034044584082119,0,0,1.034044584082119,-4611.937563379206,-2081.516304472353) ">
   <g stroke="null" id="svg_130" transform="matrix(0.11168038691554798,0,0,0.11168038691554798,77.03230029241558,166.66314489863282) ">
    <g stroke="null" id="svg_131">
     <path stroke="null" d="m38296.57761,26941.86929c-2.928,-2.929 -7.677,-2.928 -10.606,0c-2.93,2.931 -7.675,2.931 -10.605,0c-2.929,-2.928 -7.678,-2.929 -10.606,0c-2.93,2.929 -2.93,7.678 -0.001,10.607c15.745,15.744 42.023,-0.405 31.818,-10.607z" id="svg_132" fill="#ed7f36"/>
    </g>
   </g>
   <g stroke="null" id="svg_127" transform="matrix(0.11168038691554798,0,0,0.11168038691554798,77.03230029241558,166.66314489863282) ">
    <g stroke="null" id="svg_128">
     <path stroke="null" d="m38239.16661,26923.84529c-16.82,0 -21.279,23.398 -8.398,23.398c4.143,0 7.5,-3.357 7.5,-7.5c0,-1.188 1.797,-1.187 1.797,0c0,4.143 3.357,7.5 7.5,7.5c12.901,0 8.395,-23.398 -8.399,-23.398z" id="svg_129" fill="#ed7f36"/>
    </g>
   </g>
   <g stroke="null" id="svg_124" transform="matrix(0.11168038691554798,0,0,0.11168038691554798,77.03230029241558,166.66314489863282) ">
    <g stroke="null" id="svg_125">
     <path stroke="null" d="m38322.17161,26923.84529c-16.821,0 -21.279,23.398 -8.399,23.398c4.143,0 7.5,-3.357 7.5,-7.5c0,-1.188 1.797,-1.187 1.797,0c0,4.143 3.357,7.5 7.5,7.5c12.902,0 8.397,-23.398 -8.398,-23.398z" id="svg_126" fill="#ed7f36"/>
    </g>
   </g>
   <g stroke="null" id="svg_121" transform="matrix(0.11168038691554798,0,0,0.11168038691554798,77.03230029241558,166.66314489863282) ">
    <g stroke="null" id="svg_122">
     <path stroke="null" d="m38438.53961,26752.91129c-3.196,-3.22 15.202,-2.2 -283.3,-2.2c-4.141,0 -7.5,3.359 -7.5,7.5c0,4.13 3.359,7.5 7.5,7.5l270.5,0l0,323.994l-67.571,0l0,-25.206c0,-18.081 -6.483,-35.187 -18.262,-48.265c17.91,-12.472 31.574,-30.512 38.455,-51.854c16.77,2.747 31.949,-10.252 31.949,-27.136c0,-15.531 -13.001,-28.294 -28.983,-27.433c-6.552,-39.95 -52.953,-91.836 -81.405,-120.404c-10.771,-10.812 -27.523,-10.982 -38.46,0.013c-28.384,28.533 -74.746,80.413 -81.283,120.367c-17.459,-1.156 -32.011,12.727 -32.011,29.925c0,19.056 17.682,33.438 36.462,29.293c7.329,19.121 20.066,35.402 36.876,47.143c-11.83,13.089 -18.338,30.231 -18.338,48.351l0,25.206l-70.429,0l0,-331.494c0,-4.141 -3.37,-7.5 -7.5,-7.5c-4.141,0 -7.5,3.359 -7.5,7.5c0,11.3 0,325.649 0,338.994c0,4.108 3.343,7.5 7.5,7.5c3.694,0 303.764,0 308,0c4.183,0 7.5,-3.424 7.5,-7.5c0,-361.882 1.072,-341.047 -2.2,-344.294zm-228.553,123.132c1.629,0.003 3.257,0.024 4.872,0.074c7.65,0.277 10.706,-9.923 4.112,-13.913c3.392,-4.878 7.122,-9.918 11.151,-15.078c15.615,1.596 30.992,4.977 45.759,10.113c9.475,3.291 14.197,-10.942 4.928,-14.168c-12.808,-4.455 -26.04,-7.693 -39.488,-9.679c3.709,-4.372 7.604,-8.809 11.666,-13.286c11.1,2.105 22.096,5.041 32.742,8.756c9.476,3.302 14.208,-10.929 4.943,-14.162c-8.401,-2.932 -17.007,-5.401 -25.709,-7.401c2.361,-2.454 4.741,-4.895 7.137,-7.304c5.313,-5.341 12.489,-4.727 17.196,-0.003c6.905,6.933 15.559,15.958 24.583,26.192c-6.497,1.754 -7.797,10.765 -1.146,14.068c8.041,4 16.048,8.618 23.825,13.726c10.246,13.756 18.013,26.361 23.153,37.499c-15.013,-14.355 -32.067,-26.624 -50.391,-36.127c-3.679,-1.905 -8.203,-0.473 -10.111,3.205c-1.906,3.678 -0.472,8.204 3.205,10.111c5.336,2.767 10.549,5.799 15.633,9.049c-13.932,-3.849 -28.499,-5.56 -43.195,-4.943c-9.25,-3.44 -18.834,-6.168 -28.521,-8.099c-8.171,-1.629 -12.459,9.344 -5.421,13.72c-15.189,4.486 -29.522,11.53 -42.417,20.852c2.603,-7.031 6.442,-14.779 11.494,-23.202zm142.387,34.107c-23.824,-2.927 -46.916,-10.541 -67.777,-22.443c23.765,0.746 47.408,8.274 67.777,22.443zm-75.54,-22.446c-20.846,11.879 -43.913,19.478 -67.714,22.401c20.067,-13.971 43.539,-21.662 67.714,-22.401zm-80.376,69.475c-1.357,-4.639 -6.699,-6.804 -10.901,-4.415c-9.948,5.645 -22.388,-1.571 -22.388,-13.052c0,-10.692 10.947,-17.985 20.81,-13.835c4.129,1.737 50.999,1.642 96.732,-23.167c49.418,26.842 96.815,23.8 93.912,23.8c0.967,0 2.047,-0.209 3.03,-0.644c8.328,-3.761 17.659,2.356 17.659,11.377c0,6.892 -5.607,12.5 -12.5,12.5c-6.081,0 -7.44,-4.103 -12.63,-1.785c-2.119,0.946 -3.683,2.718 -4.331,5.512c-7.775,33.267 -35.772,59.822 -71.822,65.256c-3.081,0.463 -3.509,1.454 -13.359,11.047c-9.828,-9.571 -10.264,-10.571 -13.349,-11.037c-33.216,-5.015 -61.266,-28.758 -70.863,-61.557zm146.711,132.529l-15,0l0,-20.206c0,-4.143 -3.358,-7.5 -7.5,-7.5c-4.142,0 -7.5,3.357 -7.5,7.5l0,20.206l-65,0l0,-20.206c0,-4.143 -3.358,-7.5 -7.5,-7.5c-4.142,0 -7.5,3.357 -7.5,7.5l0,20.206l-15,0l0,-25.208c0,-25.392 14.821,-37.758 16.135,-40.724c8.876,4.456 18.421,7.653 28.356,9.397l10.509,10.235l0,10.131c0,4.143 3.357,7.5 7.5,7.5c4.143,0 7.5,-3.357 7.5,-7.5l0,-10.131l10.517,-10.242c10.044,-1.754 19.574,-4.938 28.377,-9.324c1.291,2.842 16.106,15.367 16.106,40.66l0,25.206z" id="svg_123" fill="#ed7f36"/>
    </g>
   </g>
   <g stroke="null" id="svg_118" transform="matrix(0.11168038691554798,0,0,0.11168038691554798,77.03230029241558,166.66314489863282) ">
    <g stroke="null" id="svg_119">
     <path stroke="null" d="m38507.82861,27082.41629l-37.089,-138.416l0,-185.79c0,-20.677 -16.822,-37.499 -37.5,-37.499l-22.35,0c-5.557,-19.219 -25.432,-30.416 -44.737,-25.241l-94.202,25.241l-146.711,0c-20.678,0 -37.5,16.822 -37.5,37.499l0,11.859c-12.069,3.234 -24.777,5.106 -33.424,20.083c-4.9,8.489 -6.202,18.379 -3.665,27.847l37.089,138.417l0,185.789c0,20.677 16.822,37.499 37.5,37.499l22.35,0c5.554,19.208 25.423,30.42 44.737,25.241l94.203,-25.241l146.71,0c20.678,0 37.5,-16.822 37.5,-37.499l0,-11.859c12.069,-3.234 24.777,-5.106 33.424,-20.083c4.9,-8.489 6.202,-18.378 3.665,-27.847zm-420.089,-183.953l-22.601,-84.347c-1.5,-5.599 -0.73,-11.445 2.168,-16.465c5.143,-8.908 12.642,-9.965 20.433,-12.053l0,112.865zm282.296,-188.505c9.923,-2.657 20.085,1.976 24.747,10.753l-64.877,0l40.13,-10.753zm-181.592,480.499c-9.921,2.661 -20.086,-1.978 -24.747,-10.753l64.878,0l-40.131,10.753zm267.296,-48.252c0,12.406 -10.094,22.5 -22.5,22.5c-12.799,0 -295.494,0 -308,0c-12.406,0 -22.5,-10.094 -22.5,-22.5l0,-383.995c0,-12.406 10.094,-22.5 22.5,-22.5c67.327,0 90.116,0 90.455,0c47.658,0 117.57,0 217.545,0c12.406,0 22.5,10.094 22.5,22.5l0,383.995zm22.258,-29.332l-7.258,1.945l0,-112.865l22.601,84.346c3.103,11.583 -3.758,23.47 -15.343,26.574z" id="svg_120" fill="#ed7f36"/>
    </g>
   </g>
   <g stroke="null" id="svg_117" transform="matrix(0.11168038691554798,0,0,0.11168038691554798,77.03230029241558,166.66314489863282) "/>
   <g stroke="null" id="svg_116" transform="matrix(0.11168038691554798,0,0,0.11168038691554798,77.03230029241558,166.66314489863282) "/>
   <g stroke="null" id="svg_115" transform="matrix(0.11168038691554798,0,0,0.11168038691554798,77.03230029241558,166.66314489863282) "/>
   <g stroke="null" id="svg_114" transform="matrix(0.11168038691554798,0,0,0.11168038691554798,77.03230029241558,166.66314489863282) "/>
   <g stroke="null" id="svg_113" transform="matrix(0.11168038691554798,0,0,0.11168038691554798,77.03230029241558,166.66314489863282) "/>
   <g stroke="null" id="svg_112" transform="matrix(0.11168038691554798,0,0,0.11168038691554798,77.03230029241558,166.66314489863282) "/>
   <g stroke="null" id="svg_111" transform="matrix(0.11168038691554798,0,0,0.11168038691554798,77.03230029241558,166.66314489863282) "/>
   <g stroke="null" id="svg_110" transform="matrix(0.11168038691554798,0,0,0.11168038691554798,77.03230029241558,166.66314489863282) "/>
   <g stroke="null" id="svg_109" transform="matrix(0.11168038691554798,0,0,0.11168038691554798,77.03230029241558,166.66314489863282) "/>
   <g stroke="null" id="svg_108" transform="matrix(0.11168038691554798,0,0,0.11168038691554798,77.03230029241558,166.66314489863282) "/>
   <g stroke="null" id="svg_107" transform="matrix(0.11168038691554798,0,0,0.11168038691554798,77.03230029241558,166.66314489863282) "/>
   <g stroke="null" id="svg_106" transform="matrix(0.11168038691554798,0,0,0.11168038691554798,77.03230029241558,166.66314489863282) "/>
   <g stroke="null" id="svg_105" transform="matrix(0.11168038691554798,0,0,0.11168038691554798,77.03230029241558,166.66314489863282) "/>
   <g stroke="null" id="svg_104" transform="matrix(0.11168038691554798,0,0,0.11168038691554798,77.03230029241558,166.66314489863282) "/>
   <g stroke="null" id="svg_103" transform="matrix(0.11168038691554798,0,0,0.11168038691554798,77.03230029241558,166.66314489863282) "/>
  </g>
  <g stroke="null" id="svg_100" transform="matrix(2.1073496902928293,0,0,2.1073496902928293,-3602.5250736973003,-2846.158340222796) ">
   <path stroke="null" d="m1933.9574,1502.29942c1.103,0 2,-0.897 2,-2s-0.897,-2 -2,-2s-2,0.897 -2,2s0.897,2 2,2z" id="svg_101" fill="#ed7f36"/>
  </g>
  <path stroke="null" d="m521.55015,301.35728l-53.77638,0c-4.94145,0 -8.96273,4.02128 -8.96273,8.96273l0,35.85092c0,4.94145 4.02128,8.96273 8.96273,8.96273l53.77638,0c4.94145,0 8.96273,-4.02128 8.96273,-8.96273l0,-36.59782c0,-4.75921 -3.77032,-8.21584 -8.96273,-8.21584l0,0.00001zm-53.77638,5.97515l53.77638,0c0.6991,0 2.98757,0.16133 2.98757,2.24068l0,24.46527l-15.71465,-15.71465c-2.0435,-2.0435 -5.36868,-2.0435 -7.40919,0l-14.22086,14.22086l-3.76435,-3.76435c-2.0435,-2.0435 -5.36868,-2.0435 -7.40919,0l-11.23329,11.23329l0,-29.69352c0,-1.64616 1.34142,-2.98757 2.98757,-2.98757l0.00001,-0.00001z" id="svg_99" fill="#ed7f36"/>
  <text stroke="null" fill="#ed7f36" stroke-width="0" x="2848.88447" y="2160.81459" id="svg_96" font-size="24" font-family="'League Gothic', sans-serif" text-anchor="start" xml:space="preserve" font-weight="bold" transform="matrix(1.7184338696276669,0,0,1.7184338696276669,-4347.86551714102,-3291.270300647503) ">M O V E R</text>
  <text font-style="italic" filter="url(#svg_194_blur)" stroke="#000" transform="matrix(0.5725694421483489,0,0,0.7713775634765624,106.00428492550719,27.682962894439697) " xml:space="preserve" text-anchor="start" font-family="'League Gothic', sans-serif" font-size="52" id="svg_194" y="140.33091" x="240.2181" stroke-width="0" fill="#ed7f36">CATALOG  PHOTO</text>
 </g>
</svg>